<svg width="159" height="51" viewBox="0 0 159 51" fill="none" xmlns="http://www.w3.org/2000/svg">
<path d="M36.1931 12.8405L27.0642 19.2953L18.0966 12.9327L9.12897 19.2953L0 12.8405L18.0966 0L36.1931 12.8405Z" fill="#D3D3D3"/>
<path d="M9.3134 31.7211V19.2264L0 12.8638V38.0607L18.4885 50.6706V37.9684L9.3134 31.7211ZM18.4885 38.6139H27.3408V25.7504H18.4885V38.6139Z" fill="#A0A0A0"/>
<path d="M18.4885 50.6703L36.977 38.1987V25.7271L18.4885 38.1065V50.6703Z" fill="#6C6C6C"/>
<path d="M27.7096 32.1809L18.5115 25.7261L27.6635 19.3174L37 25.7492L27.7096 32.1809Z" fill="#D3D3D3"/>
<path d="M60.12 25.78H63.08V33H60.64V32.16C59.6667 32.88 58.4133 33.24 56.88 33.24C55.5867 33.24 54.4 32.96 53.32 32.4C52.24 31.84 51.38 31.0267 50.74 29.96C50.1 28.88 49.78 27.6 49.78 26.12C49.78 24.6933 50.1067 23.4267 50.76 22.32C51.4267 21.2 52.3467 20.3267 53.52 19.7C54.6933 19.0733 56.0133 18.76 57.48 18.76C58.7067 18.76 59.82 18.9667 60.82 19.38C61.82 19.7933 62.66 20.3933 63.34 21.18L61.26 23.1C60.26 22.0467 59.0533 21.52 57.64 21.52C56.7467 21.52 55.9533 21.7133 55.26 22.1C54.5667 22.4733 54.0267 23.0067 53.64 23.7C53.2533 24.3933 53.06 25.1933 53.06 26.1C53.06 27.0467 53.2467 27.8533 53.62 28.52C54.0067 29.1867 54.52 29.6933 55.16 30.04C55.8 30.3733 56.5 30.54 57.26 30.54C58.3933 30.54 59.3467 30.22 60.12 29.58V25.78ZM77.2897 22.24V33H74.3097V31.76C73.5364 32.6933 72.4164 33.16 70.9497 33.16C69.9364 33.16 69.0164 32.9333 68.1897 32.48C67.3764 32.0267 66.7364 31.38 66.2697 30.54C65.803 29.7 65.5697 28.7267 65.5697 27.62C65.5697 26.5133 65.803 25.54 66.2697 24.7C66.7364 23.86 67.3764 23.2133 68.1897 22.76C69.0164 22.3067 69.9364 22.08 70.9497 22.08C72.323 22.08 73.3964 22.5133 74.1697 23.38V22.24H77.2897ZM71.4897 30.6C72.2764 30.6 72.9297 30.3333 73.4497 29.8C73.9697 29.2533 74.2297 28.5267 74.2297 27.62C74.2297 26.7133 73.9697 25.9933 73.4497 25.46C72.9297 24.9133 72.2764 24.64 71.4897 24.64C70.6897 24.64 70.0297 24.9133 69.5097 25.46C68.9897 25.9933 68.7297 26.7133 68.7297 27.62C68.7297 28.5267 68.9897 29.2533 69.5097 29.8C70.0297 30.3333 70.6897 30.6 71.4897 30.6ZM94.4583 22.08C95.8049 22.08 96.8716 22.48 97.6583 23.28C98.4583 24.0667 98.8583 25.2533 98.8583 26.84V33H95.7383V27.32C95.7383 26.4667 95.5583 25.8333 95.1983 25.42C94.8516 24.9933 94.3516 24.78 93.6983 24.78C92.9649 24.78 92.3849 25.02 91.9583 25.5C91.5316 25.9667 91.3183 26.6667 91.3183 27.6V33H88.1983V27.32C88.1983 25.6267 87.5183 24.78 86.1583 24.78C85.4383 24.78 84.8649 25.02 84.4383 25.5C84.0116 25.9667 83.7983 26.6667 83.7983 27.6V33H80.6783V22.24H83.6583V23.48C84.0583 23.0267 84.5449 22.68 85.1183 22.44C85.7049 22.2 86.3449 22.08 87.0383 22.08C87.7983 22.08 88.4849 22.2333 89.0983 22.54C89.7116 22.8333 90.2049 23.2667 90.5783 23.84C91.0183 23.28 91.5716 22.8467 92.2383 22.54C92.9183 22.2333 93.6583 22.08 94.4583 22.08ZM107.692 30.66C108.252 30.66 108.745 30.58 109.172 30.42C109.612 30.2467 110.019 29.98 110.392 29.62L112.052 31.42C111.039 32.58 109.559 33.16 107.612 33.16C106.399 33.16 105.325 32.9267 104.392 32.46C103.459 31.98 102.739 31.32 102.232 30.48C101.725 29.64 101.472 28.6867 101.472 27.62C101.472 26.5667 101.719 25.62 102.212 24.78C102.719 23.9267 103.405 23.2667 104.272 22.8C105.152 22.32 106.139 22.08 107.232 22.08C108.259 22.08 109.192 22.3 110.032 22.74C110.872 23.1667 111.539 23.7933 112.032 24.62C112.539 25.4333 112.792 26.4 112.792 27.52L104.832 29.06C105.059 29.5933 105.412 29.9933 105.892 30.26C106.385 30.5267 106.985 30.66 107.692 30.66ZM107.232 24.44C106.445 24.44 105.805 24.6933 105.312 25.2C104.819 25.7067 104.559 26.4067 104.532 27.3L109.772 26.28C109.625 25.72 109.325 25.2733 108.872 24.94C108.419 24.6067 107.872 24.44 107.232 24.44ZM128.449 19V33H125.209V27.26H118.849V33H115.609V19H118.849V24.52H125.209V19H128.449ZM142.882 22.24V33H139.922V31.72C139.508 32.1867 139.015 32.5467 138.442 32.8C137.868 33.04 137.248 33.16 136.582 33.16C135.168 33.16 134.048 32.7533 133.222 31.94C132.395 31.1267 131.982 29.92 131.982 28.32V22.24H135.102V27.86C135.102 29.5933 135.828 30.46 137.282 30.46C138.028 30.46 138.628 30.22 139.082 29.74C139.535 29.2467 139.762 28.52 139.762 27.56V22.24H142.882ZM152.632 22.08C153.632 22.08 154.539 22.3133 155.352 22.78C156.179 23.2333 156.825 23.88 157.292 24.72C157.759 25.5467 157.992 26.5133 157.992 27.62C157.992 28.7267 157.759 29.7 157.292 30.54C156.825 31.3667 156.179 32.0133 155.352 32.48C154.539 32.9333 153.632 33.16 152.632 33.16C151.152 33.16 150.025 32.6933 149.252 31.76V33H146.272V18.16H149.392V23.38C150.179 22.5133 151.259 22.08 152.632 22.08ZM152.092 30.6C152.892 30.6 153.545 30.3333 154.052 29.8C154.572 29.2533 154.832 28.5267 154.832 27.62C154.832 26.7133 154.572 25.9933 154.052 25.46C153.545 24.9133 152.892 24.64 152.092 24.64C151.292 24.64 150.632 24.9133 150.112 25.46C149.605 25.9933 149.352 26.7133 149.352 27.62C149.352 28.5267 149.605 29.2533 150.112 29.8C150.632 30.3333 151.292 30.6 152.092 30.6Z" fill="#121212"/>
</svg>
